<?xml version="1.0" encoding="UTF-8" standalone="no"?>
<!DOCTYPE svg PUBLIC "-//W3C//DTD SVG 1.1//EN" "http://www.w3.org/Graphics/SVG/1.1/DTD/svg11.dtd">
<svg width="100%" height="100%" viewBox="0 0 100 100" version="1.1" xmlns="http://www.w3.org/2000/svg" xmlns:xlink="http://www.w3.org/1999/xlink" xml:space="preserve" xmlns:serif="http://www.serif.com/" style="fill-rule:evenodd;clip-rule:evenodd;stroke-linejoin:round;stroke-miterlimit:2;">
    <g transform="matrix(1,0,0,1,-280.486,-582.13)">
        <g id="final-" serif:id="final " transform="matrix(1,0,0,1,-27.8474,582.13)">
            <rect x="308.333" y="0" width="100" height="100" style="fill:none;"/>
            <g transform="matrix(0.608332,0,-0.261855,1.12769,378.356,-135.757)">
                <rect x="5.951" y="124.187" width="21.568" height="81.071" style="fill:rgb(20,14,120);"/>
            </g>
            <g transform="matrix(0.285663,-1.23022,1.23022,7.53293e-17,106.957,120.352)">
                <path d="M56,191.406C56.021,194.72 57.438,197.706 59.692,199.803L59.717,199.827C59.742,199.85 59.768,199.874 59.794,199.897C61.726,201.654 64.254,202.766 67.037,202.894L67.054,202.894L67.078,202.895C67.119,202.897 67.161,202.899 67.202,202.9L67.276,202.902C67.376,202.905 67.475,202.906 67.575,202.906L44.425,202.906L44.5,202.906C45.02,202.902 45.532,202.865 46.035,202.795L46.075,202.789C46.544,202.722 47.004,202.627 47.455,202.505C47.523,202.486 47.592,202.467 47.661,202.447C48.336,202.25 48.987,201.993 49.606,201.683C49.635,201.668 49.664,201.653 49.693,201.639C53.436,199.72 56,195.823 56,191.331L56,191.406Z" style="fill:rgb(20,14,120);"/>
            </g>
            <g transform="matrix(0.458421,-1.97421,1.97367,1.20852e-16,-35.8422,114.844)">
                <path d="M44.425,202.906L44.5,202.906C45.02,202.902 45.532,202.865 46.035,202.795L46.075,202.789C46.544,202.722 47.004,202.627 47.455,202.505C47.523,202.486 47.592,202.467 47.661,202.447C48.336,202.25 48.987,201.993 49.606,201.683C49.635,201.668 49.664,201.653 49.693,201.639C53.436,199.72 56,195.823 56,191.331L56,202.906L44.425,202.906Z" style="fill:rgb(20,14,120);"/>
            </g>
        </g>
    </g>
</svg>
