<?xml version="1.0" encoding="UTF-8" standalone="no"?>
<!DOCTYPE svg PUBLIC "-//W3C//DTD SVG 1.1//EN" "http://www.w3.org/Graphics/SVG/1.1/DTD/svg11.dtd">
<svg width="100%" height="100%" viewBox="0 0 100 100" version="1.1" xmlns="http://www.w3.org/2000/svg" xmlns:xlink="http://www.w3.org/1999/xlink" xml:space="preserve" xmlns:serif="http://www.serif.com/" style="fill-rule:evenodd;clip-rule:evenodd;stroke-linejoin:round;stroke-miterlimit:2;">
    <g transform="matrix(1,0,0,1,-113.063,-937.61)">
        <g id="final-rounded" serif:id="final rounded" transform="matrix(1,0,0,1,-195.27,937.61)">
            <rect x="308.333" y="0" width="100" height="100" style="fill:none;"/>
            <clipPath id="_clip1">
                <rect x="308.333" y="0" width="100" height="100"/>
            </clipPath>
            <g clip-path="url(#_clip1)">
                <g transform="matrix(1.09204,0,0,1.09204,180.728,-1023.91)">
                    <path d="M208.422,960.503C208.422,947.868 198.164,937.61 185.529,937.61L139.744,937.61C127.109,937.61 116.851,947.868 116.851,960.503L116.851,1006.29C116.851,1018.92 127.109,1029.18 139.744,1029.18L185.529,1029.18C198.164,1029.18 208.422,1018.92 208.422,1006.29L208.422,960.503Z" style="fill:url(#_Linear2);"/>
                </g>
                <g transform="matrix(1,0,0,1,2,2)">
                    <g>
                        <g transform="matrix(0.534259,0,-0.22997,0.990379,376.032,-113.138)">
                            <rect x="5.951" y="124.187" width="21.568" height="81.071" style="fill:rgb(14,10,90);"/>
                        </g>
                        <g transform="matrix(0.250879,-1.08042,1.08042,6.61569e-17,137.679,111.786)">
                            <path d="M56,191.406C56.021,194.72 57.438,197.706 59.692,199.803L59.717,199.827C59.742,199.85 59.768,199.874 59.794,199.897C61.726,201.654 64.254,202.766 67.037,202.894L67.054,202.894L67.078,202.895C67.119,202.897 67.161,202.899 67.202,202.9L67.276,202.902C67.376,202.905 67.475,202.906 67.575,202.906L44.425,202.906L44.5,202.906C45.02,202.902 45.532,202.865 46.035,202.795L46.075,202.789C46.544,202.722 47.004,202.627 47.455,202.505C47.523,202.486 47.592,202.467 47.661,202.447C48.336,202.25 48.987,201.993 49.606,201.683C49.635,201.668 49.664,201.653 49.693,201.639C53.436,199.72 56,195.823 56,191.331L56,191.406Z" style="fill:rgb(14,10,90);"/>
                        </g>
                        <g transform="matrix(0.402601,-1.73382,1.73334,1.06137e-16,12.2675,106.948)">
                            <path d="M44.425,202.906L44.5,202.906C45.02,202.902 45.532,202.865 46.035,202.795L46.075,202.789C46.544,202.722 47.004,202.627 47.455,202.505C47.523,202.486 47.592,202.467 47.661,202.447C48.336,202.25 48.987,201.993 49.606,201.683C49.635,201.668 49.664,201.653 49.693,201.639C53.436,199.72 56,195.823 56,191.331L56,202.906L44.425,202.906Z" style="fill:rgb(14,10,90);"/>
                        </g>
                    </g>
                </g>
                <g>
                    <g transform="matrix(0.534259,0,-0.22997,0.990379,376.032,-113.138)">
                        <rect x="5.951" y="124.187" width="21.568" height="81.071" style="fill:white;"/>
                    </g>
                    <g transform="matrix(0.250879,-1.08042,1.08042,6.61569e-17,137.679,111.786)">
                        <path d="M56,191.406C56.021,194.72 57.438,197.706 59.692,199.803L59.717,199.827C59.742,199.85 59.768,199.874 59.794,199.897C61.726,201.654 64.254,202.766 67.037,202.894L67.054,202.894L67.078,202.895C67.119,202.897 67.161,202.899 67.202,202.9L67.276,202.902C67.376,202.905 67.475,202.906 67.575,202.906L44.425,202.906L44.5,202.906C45.02,202.902 45.532,202.865 46.035,202.795L46.075,202.789C46.544,202.722 47.004,202.627 47.455,202.505C47.523,202.486 47.592,202.467 47.661,202.447C48.336,202.25 48.987,201.993 49.606,201.683C49.635,201.668 49.664,201.653 49.693,201.639C53.436,199.72 56,195.823 56,191.331L56,191.406Z" style="fill:white;"/>
                    </g>
                    <g transform="matrix(0.402601,-1.73382,1.73334,1.06137e-16,12.2675,106.948)">
                        <path d="M44.425,202.906L44.5,202.906C45.02,202.902 45.532,202.865 46.035,202.795L46.075,202.789C46.544,202.722 47.004,202.627 47.455,202.505C47.523,202.486 47.592,202.467 47.661,202.447C48.336,202.25 48.987,201.993 49.606,201.683C49.635,201.668 49.664,201.653 49.693,201.639C53.436,199.72 56,195.823 56,191.331L56,202.906L44.425,202.906Z" style="fill:white;"/>
                    </g>
                </g>
            </g>
        </g>
    </g>
    <defs>
        <linearGradient id="_Linear2" x1="0" y1="0" x2="1" y2="0" gradientUnits="userSpaceOnUse" gradientTransform="matrix(89.505,107.511,-107.511,89.505,110.749,930.272)"><stop offset="0" style="stop-color:rgb(20,14,120);stop-opacity:1"/><stop offset="0.6" style="stop-color:rgb(17,11,108);stop-opacity:1"/><stop offset="0.81" style="stop-color:rgb(10,6,82);stop-opacity:1"/><stop offset="1" style="stop-color:rgb(3,0,56);stop-opacity:1"/></linearGradient>
    </defs>
</svg>
