<?xml version="1.0" standalone="no"?>
<!DOCTYPE svg PUBLIC "-//W3C//DTD SVG 20010904//EN"
 "http://www.w3.org/TR/2001/REC-SVG-20010904/DTD/svg10.dtd">
<svg version="1.0" xmlns="http://www.w3.org/2000/svg"
 width="700.000000pt" height="700.000000pt" viewBox="0 0 700.000000 700.000000"
 preserveAspectRatio="xMidYMid meet">
<metadata>
Created by potrace 1.14, written by Peter Selinger 2001-2017
</metadata>
<g transform="translate(0.000000,700.000000) scale(0.100000,-0.100000)"
fill="#000000" stroke="none">
<path d="M2872 6694 c3 -3 0 -29 -8 -57 -7 -29 -15 -63 -18 -77 -2 -14 -14
-65 -26 -115 -12 -49 -23 -97 -25 -105 -6 -28 -66 -285 -87 -370 -11 -47 -21
-92 -22 -100 -2 -14 -21 -94 -71 -305 -14 -55 -27 -111 -29 -125 -3 -14 -10
-45 -17 -70 -6 -25 -13 -56 -15 -70 -3 -14 -16 -70 -30 -125 -24 -98 -28 -116
-40 -172 -3 -16 -14 -64 -25 -108 -10 -44 -21 -89 -23 -100 -3 -16 -52 -224
-72 -310 -3 -11 -7 -31 -10 -44 -3 -14 -39 -169 -80 -345 -42 -177 -78 -332
-80 -346 -3 -14 -11 -50 -19 -80 -8 -30 -16 -66 -19 -80 -2 -14 -9 -45 -15
-70 -7 -25 -14 -54 -16 -65 -26 -114 -61 -264 -100 -430 -26 -110 -48 -207
-50 -215 -4 -19 -45 -200 -50 -220 -4 -17 -116 -499 -280 -1200 -58 -250 -107
-464 -109 -475 -2 -11 -16 -69 -31 -130 -15 -60 -29 -119 -31 -130 -7 -35 -48
-215 -74 -322 l-8 -33 459 0 458 0 10 38 c5 20 12 51 17 67 4 17 9 38 10 47 2
10 16 66 30 125 14 59 28 117 30 128 3 16 49 214 90 390 3 11 7 31 10 45 3 14
7 33 10 42 3 10 7 28 10 40 6 33 5 28 109 473 52 225 97 419 100 430 3 15 171
734 190 815 2 8 15 65 28 125 14 61 41 180 61 265 21 85 55 232 76 325 21 94
51 220 65 280 15 61 29 120 31 132 2 12 16 71 30 130 14 60 28 119 30 133 3
14 11 50 19 80 8 30 32 134 54 230 51 221 146 630 171 735 10 44 21 91 24 105
2 14 25 113 51 220 25 107 48 206 51 220 3 14 9 41 14 60 5 19 11 46 14 60 2
14 14 66 26 115 12 50 23 97 25 105 2 8 18 76 35 150 18 74 40 170 50 213 l17
77 -465 0 c-256 0 -463 -3 -460 -6z"/>
<path d="M4305 6693 c306 -40 562 -159 755 -353 117 -117 187 -223 265 -406
18 -43 54 -174 66 -242 13 -75 20 -313 10 -380 -7 -51 3 -62 12 -12 5 22 51
227 63 273 2 9 6 27 9 40 3 12 12 51 21 87 9 36 18 74 20 85 3 17 46 205 59
255 9 40 57 247 61 264 2 10 12 57 24 105 11 47 31 132 44 189 l23 102 -731
-1 c-402 -1 -717 -4 -701 -6z"/>
<path d="M4690 4269 c0 -30 -110 -237 -167 -314 -225 -306 -570 -515 -905
-549 -40 -5 -23 -13 47 -24 222 -35 426 -177 533 -372 65 -121 91 -234 89
-394 -2 -106 -1 -114 10 -77 7 23 14 54 17 69 2 15 25 115 50 222 25 107 69
294 97 415 28 121 76 326 106 455 30 129 56 244 59 255 2 11 20 87 39 169 19
82 33 152 30 154 -3 3 -5 -1 -5 -9z"/>
</g>
</svg>
